<?xml version="1.0"?><svg fill="#000000" xmlns="http://www.w3.org/2000/svg"  viewBox="0 0 24 24" width="24px" height="24px">    <path d="M 7.5 2 C 4.462 2 2 4.462 2 7.5 C 2 8.731 2.4087969 9.8622969 3.0917969 10.779297 C 3.0377969 11.179297 3 11.585 3 12 C 3 16.971 7.029 21 12 21 C 12.415 21 12.820703 20.962203 13.220703 20.908203 C 14.137703 21.591203 15.269 22 16.5 22 C 19.538 22 22 19.538 22 16.5 C 22 15.269 21.591203 14.137703 20.908203 13.220703 C 20.962203 12.820703 21 12.415 21 12 C 21 7.029 16.971 3 12 3 C 11.585 3 11.179297 3.0377969 10.779297 3.0917969 C 9.8622969 2.4087969 8.731 2 7.5 2 z M 7.5 4 C 8.253 4 8.9749375 4.2403125 9.5859375 4.6953125 L 10.238281 5.1835938 L 11.046875 5.0742188 C 11.420875 5.0232187 11.724 5 12 5 C 15.86 5 19 8.14 19 12 C 19 12.276 18.976781 12.578125 18.925781 12.953125 L 18.816406 13.761719 L 19.304688 14.414062 C 19.759688 15.025063 20 15.747 20 16.5 C 20 18.43 18.43 20 16.5 20 C 15.747 20 15.025062 19.759687 14.414062 19.304688 L 13.761719 18.816406 L 12.953125 18.925781 C 12.578125 18.975781 12.276 19 12 19 C 8.14 19 5 15.86 5 12 C 5 11.724 5.0232187 11.421875 5.0742188 11.046875 L 5.1835938 10.238281 L 4.6953125 9.5859375 C 4.2403125 8.9749375 4 8.253 4 7.5 C 4 5.57 5.57 4 7.5 4 z M 11.849609 7 C 8.0896094 7 7.8125 9.2089062 7.8125 9.7539062 C 7.8125 10.837906 8.4340938 11.679891 9.4960938 12.087891 C 10.625094 12.521891 11.995437 12.782141 12.773438 12.994141 C 13.990438 13.327141 13.835938 13.997703 13.835938 14.095703 C 13.835937 15.125703 12.425219 15.390984 11.824219 15.333984 C 11.144219 15.269984 10.455281 15.464281 9.7382812 13.988281 C 9.6102812 13.724281 9.3749688 13.146484 8.6679688 13.146484 C 8.3619687 13.146484 7.5976562 13.379375 7.5976562 14.109375 C 7.5976562 15.541375 9.1965156 17 11.978516 17 C 13.432516 17 16.144484 16.496672 16.146484 13.888672 C 16.146484 11.617672 13.855875 11.219156 12.171875 10.785156 C 11.710875 10.666156 9.9921875 10.476172 9.9921875 9.5761719 C 9.9921875 9.3091719 10.365891 8.6679688 11.712891 8.6679688 C 13.099891 8.6679688 13.401938 9.3172969 13.585938 9.6542969 C 13.739938 9.9212969 13.866484 10.127562 14.021484 10.226562 C 14.636484 10.619562 15.197484 10.318328 15.396484 10.111328 C 15.595484 9.9043281 15.695312 9.6760156 15.695312 9.4160156 C 15.695312 8.2850156 14.357609 7 11.849609 7 z"/></svg>