<svg id="regular" enable-background="new 0 0 24 24" height="512" viewBox="0 0 24 24" width="512" xmlns="http://www.w3.org/2000/svg"><path d="m.473 19.595c2.222 1.41 4.808 2.155 7.478 2.155 3.91 0 7.493-1.502 10.09-4.229 2.485-2.61 3.852-6.117 3.784-9.676.942-.806 2.05-2.345 2.05-3.845 0-.575-.624-.94-1.13-.647-.885.52-1.692.656-2.522.423-1.695-1.652-4.218-2-6.344-.854-1.858 1-2.891 2.83-2.798 4.83-3.139-.383-6.039-1.957-8.061-4.403-.332-.399-.962-.352-1.226.1-.974 1.668-.964 3.601-.117 5.162-.403.071-.652.41-.652.777 0 1.569.706 3.011 1.843 3.995-.212.204-.282.507-.192.777.5 1.502 1.632 2.676 3.047 3.264-1.539.735-3.241.98-4.756.794-.784-.106-1.171.948-.494 1.377zm7.683-1.914c.561-.431.263-1.329-.441-1.344-1.24-.026-2.369-.637-3.072-1.598.339-.022.69-.074 1.024-.164.761-.206.725-1.304-.048-1.459-1.403-.282-2.504-1.304-2.917-2.62.377.093.761.145 1.144.152.759.004 1.046-.969.427-1.376-1.395-.919-1.99-2.542-1.596-4.068 2.436 2.468 5.741 3.955 9.237 4.123.501.031.877-.44.767-.917-.475-2.059.675-3.502 1.91-4.167 1.222-.66 3.184-.866 4.688.712.447.471 1.955.489 2.722.31-.344.648-.873 1.263-1.368 1.609-.211.148-.332.394-.319.651.161 3.285-1.063 6.551-3.358 8.96-2.312 2.427-5.509 3.764-9.004 3.764-1.39 0-2.753-.226-4.041-.662 1.54-.298 3.003-.95 4.245-1.906z"/></svg>